# xmcd
#
# Track frame offsets: 
#        150
#        16276
#        29014
#        46470
#        61316
#        79836
#        96340
#        113227
#        131760
#        146769
#        161722
#        177481
#        191617
#        206257
#
# Disc length: 2939 seconds
#
# Revision: 0
# Processed by: cddbd v1.5.2PL0 Copyright (c) Steve Scherf et al.
# Submitted via: ExactAudioCopy v1.0b1
#
DISCID=cb0b790e
DTITLE=Karin Paparelli and Bill Diluigi  - Escaped From Nashville
DYEAR=2008
DGENRE=Country
TTITLE0=Steady On
TTITLE1=What Would Jesus Drive
TTITLE2=Broken2gether
TTITLE3=Ida Josephine
TTITLE4=You Can Always Come Home
TTITLE5=Make Love Last
TTITLE6=Lay Me Down
TTITLE7=Strangers Again
TTITLE8=In Its Own Time
TTITLE9=Lay the Axe
TTITLE10=Jenny's at the Window
TTITLE11=Thirsty
TTITLE12=Life Won't Wait for You
TTITLE13=Don't It Make My Brown Eyes Blue
EXTD=
EXTT0=
EXTT1=
EXTT2=
EXTT3=
EXTT4=
EXTT5=
EXTT6=
EXTT7=
EXTT8=
EXTT9=
EXTT10=
EXTT11=
EXTT12=
EXTT13=
PLAYORDER=
